<?xml version="1.0" encoding="UTF-8" standalone="no"?>
<!DOCTYPE svg PUBLIC "-//W3C//DTD SVG 1.1//EN" "http://www.w3.org/Graphics/SVG/1.1/DTD/svg11.dtd">
<svg width="100%" height="100%" viewBox="0 0 400 200" version="1.1" xmlns="http://www.w3.org/2000/svg" xmlns:xlink="http://www.w3.org/1999/xlink" xml:space="preserve" xmlns:serif="http://www.serif.com/" style="fill-rule:evenodd;clip-rule:evenodd;stroke-linecap:round;stroke-linejoin:round;stroke-miterlimit:1.5;">
    <g transform="matrix(1,0,0,1,-43.5387,-72.3544)">
        <path d="M190.583,142.136L237.751,169.369L237.751,223.835L190.583,251.068L143.414,223.835L143.414,169.369L190.583,142.136Z" style="fill:none;stroke:rgb(29,89,198);stroke-width:15.28px;"/>
    </g>
    <g transform="matrix(1,0,0,1,50.7992,-72.3544)">
        <path d="M143.414,169.369L190.583,142.136L237.751,169.369" style="fill:none;stroke:rgb(29,89,198);stroke-width:15.28px;"/>
    </g>
    <g transform="matrix(1,0,0,1,97.9681,-148.083)">
        <path d="M237.751,223.835L190.583,251.068L143.414,223.835L143.414,169.369" style="fill:none;stroke:rgb(29,89,198);stroke-width:15.28px;"/>
    </g>
    <g transform="matrix(1,0,0,1,-137.877,-72.3544)">
        <path d="M190.583,142.136L237.751,169.369L237.751,223.835L190.583,251.068" style="fill:none;stroke:rgb(29,89,198);stroke-width:15.28px;"/>
    </g>
</svg>
